/* XPM */
static char *castledoor[] = {
/* columns rows colors chars-per-pixel */
"64 96 183 2 ",
"   c None",
".  c #161B29",
"X  c #1A1E2C",
"o  c #3C1E23",
"O  c #1C222E",
"+  c #2B2226",
"@  c #23232B",
"#  c #2C2B2A",
"$  c #262126",
"%  c #322224",
"&  c #3F2122",
"*  c #34262A",
"=  c #3E2729",
"-  c #3E292B",
";  c #372A2A",
":  c #3D3025",
">  c #222631",
",  c #262B36",
"<  c #2A2C35",
"1  c #2A2E38",
"2  c #352E36",
"3  c #3B2E35",
"4  c #372F38",
"5  c #2C313A",
"6  c #32353D",
"7  c #3A333B",
"8  c #34393F",
"9  c #3C373B",
"0  c #45261E",
"q  c #47281E",
"w  c #4B2B1C",
"e  c #502F1C",
"r  c #4F301C",
"t  c #4E3A1D",
"y  c #563617",
"u  c #5C3C16",
"i  c #53331A",
"p  c #583719",
"a  c #57391A",
"s  c #5B3B19",
"d  c #583817",
"f  c #603F15",
"g  c #422421",
"h  c #472821",
"j  c #4A2B22",
"k  c #412D2E",
"l  c #4F3223",
"z  c #49372A",
"x  c #523223",
"c  c #5A3B22",
"v  c #523E24",
"b  c #412F31",
"n  c #453534",
"m  c #463C3C",
"M  c #4B3E36",
"N  c #50373B",
"B  c #5E4119",
"V  c #654315",
"C  c #684715",
"Z  c #674817",
"A  c #6A4815",
"S  c #63441A",
"D  c #69471C",
"F  c #66491A",
"G  c #6D4C1B",
"H  c #714E1A",
"J  c #6F501F",
"K  c #75521C",
"L  c #79561D",
"P  c #7C591F",
"I  c #58432C",
"U  c #4A413E",
"Y  c #52413F",
"T  c #6A4A24",
"R  c #704F20",
"E  c #745322",
"W  c #785623",
"Q  c #7D5B21",
"!  c #6E5339",
"~  c #363B42",
"^  c #393E44",
"/  c #443C42",
"(  c #3C4146",
")  c #3F434A",
"_  c #454144",
"`  c #41454C",
"'  c #494749",
"]  c #454A4E",
"[  c #4C4947",
"{  c #574B49",
"}  c #574A46",
"|  c #494D52",
" . c #464A52",
".. c #4D5255",
"X. c #4E5259",
"o. c #555B55",
"O. c #5D5A55",
"+. c #52555C",
"@. c #555A5C",
"#. c #595E59",
"$. c #585355",
"%. c #575151",
"&. c #645E59",
"*. c #615954",
"=. c #5C625C",
"-. c #64635D",
";. c #6C6059",
":. c #5B5E62",
">. c #5F6464",
",. c #5E6169",
"<. c #626761",
"1. c #646A64",
"2. c #6A6C66",
"3. c #65686B",
"4. c #6B6F69",
"5. c #64646A",
"6. c #736A64",
"7. c #687067",
"8. c #6D726B",
"9. c #6F796F",
"0. c #677067",
"q. c #72746E",
"w. c #70786F",
"e. c #6B6E72",
"r. c #726B7E",
"t. c #6C7170",
"y. c #757672",
"u. c #727A71",
"i. c #797C76",
"p. c #747579",
"a. c #777A7A",
"s. c #7B7E7A",
"d. c #797471",
"f. c #815E22",
"g. c #856224",
"h. c #896625",
"j. c #8D6927",
"k. c #896728",
"l. c #8C6929",
"z. c #916D2A",
"x. c #95712B",
"c. c #9A762E",
"v. c #81776E",
"b. c #807E7D",
"n. c #7C827C",
"m. c #788077",
"M. c #888175",
"N. c #81847E",
"B. c #82887E",
"V. c #797B80",
"C. c #7F8280",
"Z. c #838583",
"A. c #858985",
"S. c #8A8A86",
"D. c #8C8D8A",
"F. c #838488",
"G. c #8D928B",
"H. c #91938E",
"J. c #8F9093",
"K. c #959692",
"L. c #969995",
"P. c #999A95",
"I. c #9C9D99",
"U. c #A09E9C",
"Y. c #9DA19B",
"T. c #A1A19D",
"R. c #A3A29F",
"E. c #A4A5A1",
"W. c #A5A9A4",
"Q. c #AAA9A6",
"!. c #ACADA9",
"~. c #AAA7A5",
"^. c #B3ABAA",
"/. c #ACB0AA",
"(. c #B2B2AE",
"). c #BFB5AB",
"_. c #B4B5B1",
"`. c #BDBDBB",
"'. c #B8B9B6",
"]. c #C4B59F",
"[. c #C1C0BE",
"{. c #C7C6C5",
"}. c #D3D2D1",
/* pixels */
"                                                                                                                                ",
"                                                                                                                                ",
"                                                                                                                                ",
"                                                                                                                                ",
"                                                                                                                                ",
"                                                                                                                                ",
"                                                                                                                                ",
"                                                                                                                                ",
"                                                                                                                                ",
"                                                                                                                                ",
"                                                                                                                                ",
"                                                                                                                                ",
"                                                                                                                                ",
"                                                                                                                                ",
"                                                                                                                                ",
"                                            S.S.S.R.R.E.Q.Q.Q.!.~.S.S./ / / / / 7 7                                             ",
"                                    S.S.I.I.U.P.P.i.. M.P.I.R.!.(.P.q., Q.E.S.q.S./ / / / 4                                     ",
"                                ^.!.Q.R.B.| ..t.n.2.2.O i.u.s.i.q.A.u.^ E.A.P.A.q.q.q., X.5._ /   S.                            ",
"                            ).^._.!.Y.G.O O H.A.i.u.> S.S.q.q.i.u.8.4.+.A.<.<.u.A., , D.D.S.R.H./ 9 u.                          ",
"                        ).U.S.K.A.i.i.8.> !.i.q.q.O S.B.=.=.8.4.<.<., ^ I.1.=.q.q., D._.A.A.A.A.B.q.X 7 u.M.6.                  ",
"                    ].~.e.. X 9.u.8.q.n.+.K.q.o.o.5.A.=.=.=.=.<.8., X.L.s.o.i.u.5 ~ K.<.2.q.q.s.q.n.> E.7 7 u.u.6.              ",
"                S.P.`.e.m.O X q.8.q.s.A.5 8.u.u.5 <.) 3.( , 8 ^ 6 > >.^ u.u.o.6 R.I.n.8.u.<.q.q.8.5 Q.P.q.K./ 6 2 v.            ",
"            S.E.^.I.Q.n.i., q.o.o.o.u., X +.3.8.) K.R.H.E.E.X., , !.P.~ , , ` | K.#.#.u.i.q.<., , V.'.8.u.i.L.~ 2 2 2           ",
"      S.K.S.p.D.B.A.q.i.q.| o.@.X., :.!.D.K.s.^ q.P.8.8.q.i.A.q.~ R.S.K.A.A.D.S., , q.#.=.8.1 , E.E.q.u.o.#.=.^ K.n.5 2 2       ",
"    r.E.R.a.A.i.q.q.8.u.5 u.A.A.q.5 @.i.s.s.u.6 , S.S.<.<.<.<.<.O X.!.n.q.q.s.s.s., 6 q.5 5 u.u.B.q.<.=.o.8.^ A.G.A.X.q.D.$.    ",
"d.K.!.e.G...3.9.q.4.u.` @.I.4.<.=.4.5 8.8.8.q.8.8., D.n.u.u.q.q.O O D.] <.<.q.q., L.I.p.q.8., ..^ s.u.=.q.q.| E.8.q.6 e.E.L.%.2 ",
"S.E.4.B.q.s.] 8.8.~ 6 q.A.u.<.<.8.<.<.5 w.u.w._ 7 @ $ N I n y O O y y y ' #.q.( 6 <.<.u.W.q.O Y.s.| q.o.^ I.R.<.8.u.n.J.P.q.i.4 ",
"3.H.u.9.s.u.u.. . ( ^ ~ , <.8.8.<.8.4.5 ( 9 : x y i S & q q q % % q q q i q q _ $.%.w.w.<.u.O D.P.F.) u.e.S.q.-.q.u.` K.s.q.q.q.",
"] 8.<.s.u.<.q.+.G.P.u.9.<., 5 <.q.q.q., M y q & q e & & 0 0 q & % q i 0 q q q o g y [ | ] u., E.D.a.+...u.<...( ` @.[.P.s.n.q.q.",
"2.=.n.n.8.=.| E.L.A.u.<.q.i.6 O , , : i q q q g 0 0 & & 0 0 0 & g q q & q q q & o q q c } ^ , L.L.u.~ #.+...3.s.3.`.R.4.4.n.q.u.",
"=., 1 1 ) ^ 6 R.u.u.u.u.1.@ , ..z y i & i q q g 0 0 g & 0 0 0 & % q q g g q q q o 0 q q q I ;.W.n.A.s.~ n.`.(.!.K.( u.8.q.s.q.u.",
"> 1 A.n.) ^ 4.:.q.u.u.<.=.~ , y q q q & i q q & 0 0 g & 0 0 q & % q q q g q q q & 0 q q 0 q q q q g i 6 E.i.q.q.1 s.] ) ( ( ` 5 ",
"3.E.D.G.=.u.i.u.~ 6 6 ( ^ > y q q q q g q q q g 0 0 0 g q q q @ @ u i i g q q q & 0 q q & q q q q & q q m O.<.q., 8.n.[.'.[._.Y.",
"A.D.<.u.<.q.u.u.#..., 1 6 i r 0 g q q g q q 0 g 0 0 q g i u i @ @ u q u g i i i & 0 q q & q q q q g q q q m _ 4.<., o.K.D.A.n.n.",
"A.8.u.<.u.q.q.u.q.<./ q i r q 0 0 0 q g q q 0 g p p f g V V i O O V y q g V A S & i q q & i e q r g q q q q 6.2.w., A.n.<.<.w.u.",
"..u.1.=.q.q.q.u.%.l i g q q 0 0 0 q q g q i p 0 H V V g V V y O O V y g g G y C g a T c & q q q q 0 i q q q q e , n.W.=.=.4.u.u.",
"q.q.=.w.<.u.8.z i q q g q q q 0 0 q i g i u V q H V V g V V y O O V V g g G V V g A G i o p i i q g 0 c q o 0 q i y u.>.<.<.0.u.",
", =.q.<.u.| l g q r q g g q q 0 0 i q g V V V g A V V g V V y O O V V g S V V V g C K V o p S p i g e c i o g q q g q., , ~ ~ ] ",
", 1 6 1.m i p o i q q g g q q q 0 S y g V V G g C V g g V y y O O V V V g C V V g V L V o V K f f g u d T o & i i o i y , 5 3.] ",
"E.X.5 , i u i & q q i g g q i 0 q A V g V p T g V y g j V y y O O V y V g C V & & L C C o A Q C C g V V E o & i i o a a b.E.n.W.",
"u.P.H.6.p q q o q i i g g i i q q y u g i E y g y y g y V y y O O V y K g C V & o P V C o A f.V C g C y Q o g i i o a p y u.8.8.",
"q.q.u.  T r i o i p g g S u G q q V u g i E y g y y g.g V y y O O y y K g C V & o R V y o j.A V V g C C Q g u i g o a a p n.4.u.",
"q.u.q.[ i i i o p i g g f g.V i y V u & u W V g y y g.g V p y O O y y K q A V & o E V y o j.A V y g C C C y g G g o p i y n.4.8.",
"q.u.u.U i r i o p i g & G g.f i y V V & Q y V g y H g.g K A y O O y y j C A C & o P y y o E g.y y g C y h.g o u j p B u y n.8.9.",
"u.q.q.m i q i o p S j & G K G p q V i & E y V & y j.C g A y y O O y y j C A C S o P V y o E A g.0 g C C h.o o f 0 G B p y s.4.u.",
"u.q.8.n i i i o i A j g K V G x q C & g W V V & S j.C j u y y O y y y j V A C H o P C y o f.C h.q g C C C & o V 0 p F y y n.4.<.",
"6 6 8 n + + + o S V j O O O O O O O O O O O O & z.y C j V y O O y V y j V C V V g O O O O O O O O O O O O o o V O O O O O ] 5.~ ",
"u.G.u.- % + + + @ O O O O O O O O O O O O O O O O y K g u y O O y C y g P C y O O O O O O O O O O O O O O O O O O O O 5 s.W.G.) ",
"`.!.q.- $ $ $ + V H F @ @ O O O O O O O O O O x S y K g y y O O y C C g j C V i g O O O O O O O O O O O O o z.V O O O O u.q.L.L.",
"=.q.2.- q y + o V H K j u K y q i L V g V y & j S C K g u y O O C C C V j C V C g C V y o y y V A x A C y o z.C V q S y u.n.<.w.",
"=.u.2.- q i i o V H K j K K u q i K H g V y & g S C K g y y O O A C y V j g.u C g C V y o y y A C x A C V o V x.y q B y u.n.<.q.",
"@.u.&.- q i i o V K Q j K u V q C G H & V K V g S L V q y y V O y A y V j z.u C g H V y o y V A y x A C o o V x.y q p y u.s.s.8.",
"o.u.-.- q i q o V K g x V V V q C K V & V K V g S L V q V C V O y A V V j E C y g H S f o V C A V x A A o q C x.C 0 p y u.<.s.8.",
"#.8.-.- q i q o V g.V g u V V q C K V g H C V g S L C q C C y O y A V C g K C C g C S f o V A y V l A y o o C x.C 0 p y u.A.<.0.",
"4.=.-.k q i q o V g.V g u V C g V K C g K C V & G K C 0 C C y O y A V i g K C C g C S V o C A y C x A V o o C c.C 0 p y 6 A.=.u.",
"1 =.-.k q i i g V g.Q & i V V g V L o g K C V o G S C q y y y O y A C o j.V K C & h.S V o A A C C x C V K o y c.u 0 B ! R.5 5 ..",
"| 1 2 - q i i & V G j.& i V y g C P o & K C V o G S 0 q V y y O y A C o j.C H C o g.G C o A y C q x C V L o V c.u q B p E.}.{.'.",
"`.[.i.k q i q g f i j.g p u V g C P g g C C V o A G g q C y y O A C C o j.C C C o g.K C o A C A l j A V L o c.C V q S y u.n.2.8.",
"w.Y.Q.k q i i g V i g.g a u V g C P V j C C C o A G g g C y y O O y A o j.C V V & g.K C o A C A j g 0 C K o c.C V q S y A.n.2.u.",
"w.4.q.k i i i g G y k.g i y V g A P y j C C A & A G 0 q C y y O O y A o g.g.V V g h.H C o y C A q g q V K o c.V V i F y A.1.2.u.",
"w.2.u.k i r i o G y h.g i y V g G P y g V C A & C A j C V y y O O y A o h.f.C V 0 h.K C o f.A A C q y V K o c.V C 0 G y A.1.<.u.",
"w.<.u.k i i i & G y k.& W y V g K Q y h y C A o C V j C C y y O O y A o h.C P y g h.K V o Q A A C g V V K o c.V C 0 G y A.-.<.u.",
"7.u.u.b i i i g y G h.g Q y C q L C E j u C A o C V j C V y y O O y C C o C C q j C K V o A P y C & C P y o c.V q V F y A.2.#.u.",
"7.u.u.b i q p g i H Q g W y C q G C W h f C A g C y j A V y y O O y u C o g.C 0 x C A C o y L y C & C P y o c.V g g F y A.2.<.^ ",
"8.q.1.m i q i g V H Q g Q y A q y K W h f C A g C E @ q V V y O O y f V o O V 0 h.C V V o A A u C g C P y o c.V g g S y ` 1 1 ^ ",
"8., 5 * i q i g F G W g u W A q y K f.q f C A g V E O g C V y O O y V i o O y g h.C C y o A A y C q C P y o c.V g & S y A.Y.S.u.",
", 5 -.- q q i g V W L & y W V 0 y K f.q V C V g V v O @ C V V O O y V q O O y g h.C C y o A y y A q A E y o j.C g & S y A.u.S.Y.",
"w.`.D.- q i i g p S g.& u Q V q y K f.q V C V g # @ O O O C C O O V V o O O @ j C C V A o A y y K q P y y o j.C g & S y A.<.<.u.",
"!.(.-.- q i i g p p Q & f Q A q y H f.q V C V g # S V g @ C C O O y V O q L O @ C C V A o y y y j 0 P y y o g.C g g S y A.u.<.u.",
"<.q.&.- q i i g p C Q g V Q A q u G x g V C V g # y q q @ y C O O y V O g f.O @ h.C V A o y C y j q K y V o g.C j g p y A.A.<.u.",
"u.q.*.= q i 0 0 p C Q g V Q A g V G x g V C V g h.@ @ @ C A y O O y V O O O O g g.V V A o C f.C j 0 K y V F o V j g g y u.A.<.u.",
"u.q.*.= q i 0 q p V f.g u Q A 0 C f c 0 y C A g h.V V q C A y O O y V C x C V j V f.V A o C g.A P q u G V g o V j V g i u.A.<.<.",
"<.q.{ g q i 0 g V V g.g u Q A q V f g.q V C H g h.C V q V A y O O V y C l C C H 0 V K A & o g.A f.h V S y o o C g C p y u.A.2.6 ",
"<.q.} = q a p g V V g.g V S A q V V Q q V C K g h.C h q C C y O O V y C j C C H 0 y V K o o h.V g.g H S V o o C g V p y u.E.] 1 ",
"5 u.{ = q p i g V V g.g V f A q V V x e V V P q g.V g C C y y O O y V V j C C H 0 y C H o o h.A g.g H C A o o V g V y y U.`.!.P.",
"e., * * q i r 0 K V P h u f A g V V x i y V f.q Q V G g C y O O O y V V h C C V j V A y o A h.V f.h A K A o S C g V y y u.A.2.4.",
"!.u.3 * q i q j V y P g y f A g C V c i y V g.g Q C H h V y O O O y V C h V V V g C A y o A h.C f.h y K A o f K q V p y u.A.2.u.",
"#.u.Y q q q q j V y P g y V A 0 C y l y y V g.g Q C G h V y O O y y V g h V V y g C A y o A y f.I h C K A o V Q O 0 p i u.A.2.u.",
"#.=.* % % % q g V V # O @ O O O O O O @ O O g.0 y g.H g V y O O y y C & g y C y g O O @ O O O O O O O O O o f.O O O O O u.A.<.u.",
"u.=.* % % % % @ O O O O @ O O O O O O O O O O O O g.S g V y O O y y C & g p C O O O O O O O O O O O O O O O O O O O O O u.C.8.u.",
"=.=.{ % % % i @ O O @ @ O O O O O O O O O O @ g y f.H g V y O @ y y V & & p C g h O O O O O O O O O O O O O f.O O O O O u.C.w.u.",
"=.u.O.% + % i & Q V C O O O K g V F 0 V V S g.g g Q g g p y O @ y y C o & B V g x C y o o A V Q C q B y t o f.y O O i O u.C.<.u.",
"u.=.q.q q i i 0 Q V C T C y L g C F q q V S Q g g Q g g B y O @ y V C o & B y g l y y o o A V P A g C y u & o y r q y y u.A.2.8.",
"u.#.u.n q i i 0 Q y C g A y L g F S y q S V J 0 g Q g g B y O O u V A o L p y g j V y o o A y P p 0 C y K o o V h V V y u., , , ",
"q.=., * q i i g Q y V g A G A g F y y r V V K & j C C j B y O O p V A o c p y g P V y o o A E V p 0 C y K o J A g V V y s.W.D.<.",
",., , k q r q 0 V E V g C G A g V p S q V V g.g j V C g G y O O y V A o x g V g P V p A o A E y p g C V A o B A q S V y A.D.D._.",
"/.!.<.k q q q 0 V Q V g C L A g y S y x V h.C & Q V C g x y O O O p A o p 0 V g P V S A o A Q y p g A V F o S V g S V y u.A.4.w.",
"u.u.=.k q i q 0 F f.C g C K A g V A q p V g.C & L y q q c y O O O p A y q j V g P y G A o P A C A g A F F o S V g S S V u.A.4.9.",
"u.u.O.- q i i q F Q C j A V A g V G x i g.C C & K y V q c y O O O p B y q g C g P y R A o P A A Z g A C V o B V q B F y 8.A.8.w.",
"u.u.%.- r i i 0 V Q C E A V y g V y x i h.V & q G y C q c y y O O y B V g g C g C E G A o G A A A g A C V o S V g p S y 8.A.4.u.",
"9.q.&.- r i i 0 V V f.q C V y g V y q W H C & g S y C x q y y O O y S C & g C C & f.A A o S A A A & V f.y o S V g S S y q.` 5 ( ",
") , , - r i i 0 V V Q j C V V g V V q j.G C o g u V C x C y y O O y S C o & A C & g.A A o p A A A & C g.y o S S g S S y E.{.L.`.",
"!.(., * q i p 0 C V V & V V y g V V c q y C y V g V C x C C V O O p F C o V C C g V f.A o o A A A & h.C V o V F g g p y Y.{.L.u.",
"u.u.O.3 i i p q C y C g V V y g V V x i V C V q & V g.q C C C O O y V C o V C C 0 V P A o o A A C o h.V C o V S g g B y u.A.<.u.",
"u.u.=.3 i i V q V y y g V V y g y y y q V C V g g Q f.0 y C y O O y C y o V V y 0 V y G o o A A y o h.V V o C y g g B y q.<.9.9.",
"u.u.<.3 y y V q C y y y C V y g y y y V V y y g y y y i y y y y O y y y o y y y V y y y o o A A i o f.y V o y y g g S y u.<.<.u."
};
