/* XPM */
static char *apple[] = {
/* columns rows colors chars-per-pixel */
"32 32 8 1 ",
"  c None",
". c #572125",
"X c #7C2E32",
"o c #386900",
"O c #A81B2C",
"+ c #51A200",
"@ c #49A269",
"# c #EB8A97",
/* pixels */
"                                ",
"                       +++++++  ",
"                      ++@@@o@   ",
"                   ++++@@@oo    ",
"                   +@oooooo     ",
"                   +oo          ",
"                   +            ",
"        ........#X#X#...        ",
"      ..OXOXOXX#X#XOOOOX.       ",
"     .XOOOOOOOOOOOOOOOOOO.      ",
"     .XOOOOOOO#########OOO.     ",
"    .XXOOOOOOO########OOOO.     ",
"    .XXXOOOOOOOO####OOOOOOX.    ",
"   .XXXXOOOOOOOOOO#OOOOOOOO.    ",
"   .XXXXOOOOOOOOOOOOOOOOOXX.    ",
"   .XXXXXOOOOOOOOOOOOOOOOXX.    ",
"   .XXXXXOOOOOOOOOOOOXXXXX..    ",
"   .XXXXXXOOOOOXXXXXXXXXXX..    ",
"   .XXXXXXXXXXXXXXXXXXXXX...    ",
"   .XXXXXXXXXXXXXXXXXXXX....    ",
"    .XXXXXXXXXXXXXXXXXXX...     ",
"    ..XXXXXXXXXXXXXXXXX....     ",
"    ..XXXXXXXXXXXXXXXXX...      ",
"     .XXXXXXXXXXXXXXXX....      ",
"     ..XXXXXXXXXXXXXX....       ",
"     ..XXXXXXXXXXXXX.....       ",
"      .XXXXXXXXXXXXX....        ",
"      ..XXXXXXXXXXXX....        ",
"       ..XXXXXXXXXX....         ",
"        ..XXX....XX...          ",
"         .....XX.....           ",
"                                "
};
