/* XPM */
static char *cherry[] = {
/* columns rows colors chars-per-pixel */
"100 100 5 1 ",
"  c None",
". c black",
"X c #DF1717",
"o c #2CDF17",
"O c #ECECEC",
/* pixels */
"                                                                                                    ",
"                                                                                                    ",
"                                                                                                    ",
"                                                  ...                                               ",
"                                                  ...                                               ",
"                                                  ...                                               ",
"                                               .........                                            ",
"                                               .........                                            ",
"                                               .........                                            ",
"                                         ......................                                     ",
"                                         ......................                                     ",
"                                         ......................                                     ",
"                                         ......................                                     ",
"                                  .......ooo...............oooo......                               ",
"                                  .......ooo...............oooo......                               ",
"                                  .......ooo...............oooo......                               ",
"                            ..........ooo...ooo.........ooo....oooooo......                         ",
"                            ..........ooo...ooo.........ooo....oooooo......                         ",
"                            ..........ooo...ooo.........ooo....oooooo......                         ",
"                         ......ooooooo...ooo............ooooooo...oooooo......                      ",
"                         ......ooooooo...ooo............ooooooo...oooooo......                      ",
"                         ......ooooooo...ooo............ooooooo...oooooo......                      ",
"                      ......oooooo....oooooo...   .........ooooooo...oooooo......                   ",
"                      ......oooooo....oooooo...   .........ooooooo...oooooo......                   ",
"                      ......oooooo....oooooo...   .........ooooooo...oooooo......                   ",
"                   ......oooooo...ooooooo......   .............ooooooooooooooo......                ",
"                   ......oooooo...ooooooo......   .............ooooooooooooooo......                ",
"                   ......oooooo...ooooooo......   .............ooooooooooooooo......                ",
"                ......oooooo...oooooooooo...      ......   .......ooooooooooooooo.......            ",
"                ......oooooo...oooooooooo...      ......   .......ooooooooooooooo.......            ",
"                ......oooooo...oooooooooo...      ......   .......ooooooooooooooo.......            ",
"                ...ooooooooooooooooooo......      .........    .........oooooooooooo....            ",
"                ...ooooooooooooooooooo......      .........    .........oooooooooooo....            ",
"                ...ooooooooooooooooooo......      .........    .........oooooooooooo....            ",
"             ......ooooooooooooooo.......      ......   .......      .........oooooo....            ",
"             ......ooooooooooooooo.......      ......   .......      .........oooooo....            ",
"             ......ooooooooooooooo.......      ......   .......      .........oooooo....            ",
"             ......ooooooooooooooo.......      ......   .......      .........oooooo....            ",
"             ...oooooooooooo......             ...         .......         .............            ",
"             ...oooooooooooo......             ...         .......         .............            ",
"             ...oooooooooooo......             ...         .......         .............            ",
"             ...oooooo.........             ......             ...                                  ",
"             ...oooooo.........             ......             ...                                  ",
"             ...oooooo.........             ......             ...                                  ",
"             ............                ......                ...                                  ",
"             ............                ......                ...                                  ",
"             ............                ......                ...                                  ",
"                                         ...                   ......                               ",
"                                         ...                   ......                               ",
"                                         ...                   ......                               ",
"                                      ......               .............                            ",
"                                      ......               .............                            ",
"                                      ......               .............                            ",
"                                  .......            ......XXXXXXXXXXXXX......                      ",
"                                  .......            ......XXXXXXXXXXXXX......                      ",
"                                  .......            ......XXXXXXXXXXXXX......                      ",
"                               .......               ...XXXXXXXXXXXXXOOOXXX...                      ",
"                               .......               ...XXXXXXXXXXXXXOOOXXX...                      ",
"                               .......               ...XXXXXXXXXXXXXOOOXXX...                      ",
"                         .............            ...XXXXXXXXXXXXXXXXXXXXXXXXX...                   ",
"                         .............            ...XXXXXXXXXXXXXXXXXXXXXXXXX...                   ",
"                         .............            ...XXXXXXXXXXXXXXXXXXXXXXXXX...                   ",
"                         .............            ...XXXXXXXXXXXXXXXXXXXXXXXXX...                   ",
"                   ......XXXXXXXXXXXXX......      ...XXXXXXXXXXXXXXXXXXXOOOXXX...                   ",
"                   ......XXXXXXXXXXXXX......      ...XXXXXXXXXXXXXXXXXXXOOOXXX...                   ",
"                   ......XXXXXXXXXXXXX......      ...XXXXXXXXXXXXXXXXXXXOOOXXX...                   ",
"                   ...XXXXXXXXXXXXOOOOXXX...      ...XXXXXXXXXXXXXXXXXXXXXXXXX...                   ",
"                   ...XXXXXXXXXXXXOOOOXXX...      ...XXXXXXXXXXXXXXXXXXXXXXXXX...                   ",
"                   ...XXXXXXXXXXXXOOOOXXX...      ...XXXXXXXXXXXXXXXXXXXXXXXXX...                   ",
"                ...XXXXXXXXXXXXXXXXXXXXXXXXX...   ...XXXXXXXXXXXXXXXXXXXXXXXXX...                   ",
"                ...XXXXXXXXXXXXXXXXXXXXXXXXX...   ...XXXXXXXXXXXXXXXXXXXXXXXXX...                   ",
"                ...XXXXXXXXXXXXXXXXXXXXXXXXX...   ...XXXXXXXXXXXXXXXXXXXXXXXXX...                   ",
"                ...XXXXXXXXXXXXXXXXXXXOOOXXX...      ...XXXXXXXXXXXXXXXXXXX...                      ",
"                ...XXXXXXXXXXXXXXXXXXXOOOXXX...      ...XXXXXXXXXXXXXXXXXXX...                      ",
"                ...XXXXXXXXXXXXXXXXXXXOOOXXX...      ...XXXXXXXXXXXXXXXXXXX...                      ",
"                ...XXXXXXXXXXXXXXXXXXXXXXXXX...      ......XXXXXXXXXXXXX......                      ",
"                ...XXXXXXXXXXXXXXXXXXXXXXXXX...      ......XXXXXXXXXXXXX......                      ",
"                ...XXXXXXXXXXXXXXXXXXXXXXXXX...      ......XXXXXXXXXXXXX......                      ",
"                ...XXXXXXXXXXXXXXXXXXXXXXXXX...            .............                            ",
"                ...XXXXXXXXXXXXXXXXXXXXXXXXX...            .............                            ",
"                ...XXXXXXXXXXXXXXXXXXXXXXXXX...            .............                            ",
"                   ...XXXXXXXXXXXXXXXXXXX...                                                        ",
"                   ...XXXXXXXXXXXXXXXXXXX...                                                        ",
"                   ...XXXXXXXXXXXXXXXXXXX...                                                        ",
"                   ......XXXXXXXXXXXXX......                                                        ",
"                   ......XXXXXXXXXXXXX......                                                        ",
"                   ......XXXXXXXXXXXXX......                                                        ",
"                   ......XXXXXXXXXXXXX......                                                        ",
"                         .............                                                              ",
"                         .............                                                              ",
"                         .............                                                              ",
"                                                                                                    ",
"                                                                                                    ",
"                                                                                                    ",
"                                                                                                    ",
"                                                                                                    ",
"                                                                                                    ",
"                                                                                                    ",
"                                                                                                    ",
"                                                                                                    "
};
