/* XPM */
static char *fox[] = {
/* columns rows colors chars-per-pixel */
"16 16 64 1 ",
"  c None",
". c #1B1B1B",
"X c #272727",
"o c gray24",
"O c #5D5D5D",
"+ c gray52",
"@ c #B4B4B4",
"# c white",
"$ c #C7CFDD",
"% c #92A1B9",
"& c #657392",
"* c #424C6E",
"= c #2A2F4E",
"- c #1A1932",
"; c #0E071B",
": c #1C121C",
"> c #391F21",
", c #5D2C28",
"< c #8A4836",
"1 c #BF6F4A",
"2 c #E69C69",
"3 c #F6CA9F",
"4 c #F9E6CF",
"5 c #EDAB50",
"6 c #E07438",
"7 c #C64524",
"8 c #8E251D",
"9 c #FF5000",
"0 c #ED7614",
"q c #FFA214",
"w c #FFC825",
"e c #FFEB57",
"r c #D3FC7E",
"t c #99E65F",
"y c #5AC54F",
"u c #33984B",
"i c #1E6F50",
"p c #134C4C",
"a c #0C2E44",
"s c #00396D",
"d c #0069AA",
"f c #0098DC",
"g c #00CDF9",
"h c #0CF1FF",
"j c #94FDFF",
"k c #FDD2ED",
"l c #F389F5",
"z c #DB3FFD",
"x c #7A09FA",
"c c #3003D9",
"v c #0C0293",
"b c #03193F",
"n c #3B1443",
"m c #622461",
"M c #93388F",
"N c #CA52C9",
"B c #C85086",
"V c #F68187",
"C c #F5555D",
"Z c #EA323C",
"A c #FF0040",
"S c #C42430",
"D c #891E2B",
"F c #571C27",
/* pixels */
"              3 ",
"      33     3q ",
"     3qq3   3q6 ",
"       6q3 3q6  ",
"        6qqqqq  ",
"    4    qqqqq  ",
"   344   qqoqo  ",
"  3qq4   qqoqo  ",
" 3qqq0   44444o ",
" qqq0  33q44444 ",
" 0qq 33qqqqq    ",
"  0q3qqqq444    ",
"   0qqqqqq4q    ",
"    q0000q0q    ",
"    q q  q q    ",
"    o o  o o    "
};
