/* XPM */
static char *TILES_0_1[] = {
/* columns rows colors chars-per-pixel */
"32 32 2 1 ",
"  c None",
". c #B2E3FF",
/* pixels */
".                               ",
".                               ",
"..                              ",
" .                              ",
" ..                             ",
"  .                             ",
"   .                            ",
"   ..                           ",
"    ..                          ",
"     ..                         ",
"      ...                       ",
"        ...                     ",
"           ...                  ",
"              ...               ",
"                 ..             ",
"                  ..            ",
"                   ..           ",
"                    .           ",
"                    ..          ",
"                     .          ",
"                     .          ",
"                     .          ",
"                     ..         ",
"                      .         ",
"                      ..        ",
"                       ..       ",
"                        ...     ",
"                          ...   ",
"                            ..  ",
"                             .. ",
"                              ..",
"                               ."
};
