/* XPM */
static char *TILES_5_1[] = {
/* columns rows colors chars-per-pixel */
"32 32 4 1 ",
"  c #38551C",
". c #099200",
"X c #56B450",
"o c #AEFA5F",
/* pixels */
"o.ooooooooo oo.ooooooooo.ooooooo",
"oo.oooooooo ooo.oooooooo.ooooooo",
"ooo.oooooooo oo.ooooooooo.ooooXo",
"oooo ooooooo ooo ooooooooo oooXo",
".ooo ooooooo oooo oooooooo ooooX",
"Xoooo ooooooooooo ooooooooo oooX",
"Xoooo oooooooooooo oooooooo oooo",
".ooooo ooooooooooo ooooooooo ooo",
"o.oooo oooXooooooooooooooooo ooo",
"o.oooo oooXooooooXoooooooooooooo",
"o.ooooo ooXooooooXoooooooooooooo",
"oo.oooo ooXoooooooXooooooooooooo",
"oo.ooooooo.oooooooXooooooooooooo",
"ooo ooooooo.ooooooXooooooooXoooo",
"oooo oooooo.ooooooo.oooooooXoooo",
"oooo oooooo.ooooooo.ooooooooXooo",
"ooooo ooooo.oooooooo.oooooooXooo",
"ooooooooooo.oooooooo.oooooooXooo",
"oooooXoooooo oooooooo oooooo.ooo",
"oooooXoooooo oooooooo ooooooo.oo",
"ooooooXooooo ooooooooo oooooo.oo",
"ooooooXooooo ooooooooo oooooo.oo",
"oooooooXooooo ooooooooo oooooo.o",
"oooooooXooooo ooooooooo oooooo.o",
"oooooooo.oooo ooooooooo ooooooo ",
" ooooooo.oooo oooooooooo ooooooo",
"o ooooooo.oooooooooooooo ooooooo",
"o ooooooo.oooXoooooooXooooooooXo",
"oo ooooooo ooXooooooooXooooooooX",
"ooo oooooo oooXoooooooXooooooooX",
"Xoooooooooo ooXooooooooXoooooooo",
"o.ooooooooo oo.ooooooooXoooooooo"
};
