/* XPM */
static char *wall[] = {
/* columns rows colors chars-per-pixel */
"32 64 3 1 ",
"  c #1F8AD0",
". c #5AA2D2",
"X c #40A5E7",
/* pixels */
"                                ",
"  XXXXXXXX                      ",
"XX   .....XXX        XXXXXXXXX  ",
"             X    XXX   ......XX",
"              X  X              ",
"               XX               ",
"                                ",
"                                ",
"                                ",
"                                ",
"                                ",
"                                ",
"  XXXXXXXX                      ",
"XX   .....XXX        XXXXXXXXX  ",
"             X    XXX   ......XX",
"              X  X              ",
"               XX               ",
"                                ",
"                                ",
"                                ",
"                                ",
"                                ",
"  XXXXXXXX                      ",
"XX   .....XXX        XXXXXXXXX  ",
"             X    XXX   ......XX",
"              X  X              ",
"               XX               ",
"                                ",
"                                ",
"                                ",
"                                ",
"                                ",
"                                ",
"XXXX                            ",
"....XXX        XXXXXXXXX        ",
"       X    XXX   ......XX   XXX",
"        X  X             X  X  .",
"         XX               XX    ",
"                                ",
"                                ",
"                                ",
"                                ",
"                                ",
"                                ",
"XXXX                            ",
"....XXX        XXXXXXXXX        ",
"       X    XXX   ......XX   XXX",
"        X  X             X  X  .",
"         XX               XX    ",
"                                ",
"                                ",
"                                ",
"                                ",
"                                ",
"XXXX                            ",
"....XXX        XXXXXXXXX        ",
"       X    XXX   ......XX   XXX",
"        X  X             X  X  .",
"         XX               XX    ",
"                                ",
"                                ",
"                                ",
"                                ",
"                                "
};
