/* XPM */
static char *tree[] = {
/* columns rows colors chars-per-pixel */
"16 23 6 1 ",
"  c #222034",
". c #493C2B",
"X c #2F484E",
"o c #A46422",
"O c #44891A",
"+ c #A3CE27",
/* pixels */
"        X       ",
"        X       ",
"       XXX      ",
"        X       ",
"       XXX      ",
"      XX+XX     ",
"      XXXXX     ",
"     XX+X+XX    ",
"      XX+XX     ",
"    XOOOOOXXX   ",
"    XXOXXXXXX   ",
"    XXXXXXXXX   ",
"   XXXO++X+XXX  ",
"   X+OOOOOOXXX  ",
"    XXXXXXXXX   ",
"    XXOOXXXXX   ",
"  XXX+OOOX+XXXX ",
" XX+++OOO++OXXXX",
"       .oo      ",
"       oo.      ",
"      .oo       ",
"      .ooo      ",
"       .oo      "
};
